<!DOCTYPE svg PUBLIC "-//W3C//DTD SVG 20010904//EN" "http://www.w3.org/TR/2001/REC-SVG-20010904/DTD/svg10.dtd">
<svg version="1.0" xmlns="http://www.w3.org/2000/svg" width="1150px" height="1202px" viewBox="0 0 11500 12020" preserveAspectRatio="xMidYMid meet">
<g id="layer101" fill="#e78200" stroke="none">
 <path d="M6165 11939 c-129 -22 -363 -81 -432 -108 -368 -144 -519 -213 -703 -321 -69 -40 -156 -91 -195 -112 -38 -22 -95 -59 -125 -82 -30 -24 -75 -55 -100 -70 -25 -15 -63 -41 -85 -57 -22 -16 -60 -43 -85 -60 -25 -18 -58 -43 -75 -56 -16 -14 -100 -64 -185 -112 -129 -72 -229 -136 -394 -251 -48 -34 -235 -178 -291 -225 -33 -27 -78 -63 -100 -79 -22 -16 -63 -52 -92 -80 -67 -66 -149 -137 -183 -157 -15 -10 -51 -47 -81 -85 -30 -37 -90 -104 -134 -148 -45 -45 -122 -130 -172 -191 -50 -60 -115 -139 -145 -174 -77 -92 -118 -153 -118 -176 0 -11 -31 -66 -70 -122 -38 -56 -80 -121 -93 -145 -13 -24 -54 -97 -92 -163 -118 -209 -133 -239 -150 -295 -10 -30 -35 -102 -58 -160 -87 -227 -139 -394 -173 -555 -56 -263 -41 -775 37 -1214 20 -114 92 -377 130 -474 34 -88 107 -190 161 -225 27 -18 52 -40 55 -48 3 -9 -21 -69 -55 -137 -55 -109 -86 -179 -215 -487 -19 -47 -49 -112 -65 -145 -50 -101 -182 -412 -182 -428 0 -27 -143 -151 -232 -200 -48 -27 -100 -62 -117 -77 -37 -36 -89 -45 -241 -44 -137 1 -145 4 -229 96 -72 80 -82 99 -111 203 -33 116 -33 272 1 485 28 177 31 317 10 473 -20 153 -31 278 -26 288 4 5 3 40 -1 78 -7 77 -21 92 -60 67 -27 -18 -41 -57 -53 -151 -15 -108 -30 -192 -40 -219 -34 -87 -69 -794 -51 -996 24 -266 91 -642 140 -790 15 -47 51 -156 79 -242 56 -173 154 -423 175 -448 8 -8 27 -46 44 -85 39 -91 171 -328 246 -441 134 -204 171 -256 278 -390 281 -353 601 -662 978 -945 69 -52 155 -111 191 -132 35 -21 94 -60 129 -87 36 -27 68 -49 72 -50 3 0 42 -21 85 -46 43 -26 109 -63 148 -82 38 -19 85 -47 105 -61 20 -14 63 -38 96 -53 137 -62 255 -113 349 -150 54 -22 104 -43 110 -48 16 -13 276 -101 425 -144 464 -133 597 -161 1010 -212 170 -21 842 -30 1035 -14 255 22 637 82 765 120 36 11 133 38 215 61 172 46 456 140 530 175 28 13 128 58 224 99 224 98 264 118 453 231 86 52 159 94 163 94 12 0 341 230 450 315 364 283 692 612 975 975 86 111 123 164 233 332 16 24 41 61 56 83 16 22 44 69 64 105 19 36 68 126 108 200 41 74 83 153 93 175 35 76 129 310 153 385 14 41 35 102 48 135 22 58 36 167 51 380 5 75 42 271 95 507 15 68 31 264 33 406 1 111 -1 125 -18 137 -28 21 -53 2 -66 -48 -6 -23 -20 -64 -31 -92 -12 -27 -40 -99 -64 -160 -54 -138 -99 -237 -131 -284 -13 -20 -37 -77 -54 -126 -59 -173 -299 -576 -437 -730 -99 -112 -136 -147 -199 -190 -32 -22 -95 -76 -139 -120 -44 -44 -107 -99 -140 -122 -93 -66 -249 -153 -272 -153 -12 0 -43 18 -70 40 -42 35 -253 198 -348 270 -34 25 -97 76 -213 173 -120 99 -147 117 -283 185 -74 38 -155 80 -180 94 -90 51 -361 148 -512 183 -60 14 -163 43 -230 65 -191 63 -459 117 -762 156 -219 28 -715 26 -930 -3 -285 -40 -562 -98 -835 -176 -47 -14 -125 -34 -175 -46 -49 -11 -210 -50 -357 -86 -148 -36 -310 -72 -360 -80 -51 -8 -124 -20 -163 -26 -162 -26 -354 9 -541 102 -157 77 -298 217 -411 406 -25 43 -49 94 -54 113 -4 19 -16 70 -28 113 -29 110 -82 354 -135 617 -25 124 -49 239 -55 255 -5 17 -26 111 -47 210 -29 146 -34 185 -25 209 9 26 7 33 -19 63 -18 20 -30 45 -30 62 0 16 -3 42 -6 58 -5 25 8 49 83 164 49 74 97 148 106 164 34 64 133 235 202 350 40 66 89 153 110 194 20 41 78 143 128 225 49 83 115 196 144 251 30 55 65 111 78 125 12 14 42 59 65 100 136 243 415 582 587 713 84 64 122 80 309 126 325 81 457 101 680 101 233 0 355 -39 482 -155 83 -75 204 -306 248 -472 38 -142 136 -356 188 -413 13 -14 55 -68 94 -120 70 -95 107 -134 172 -182 19 -14 63 -50 96 -80 68 -61 241 -167 433 -265 188 -96 656 -253 992 -333 190 -46 302 -51 487 -25 249 35 426 106 637 254 199 139 416 399 534 638 94 192 131 273 157 348 15 44 38 95 51 112 23 31 147 113 171 113 38 0 350 -553 440 -780 12 -30 43 -107 68 -170 26 -63 72 -190 104 -282 31 -92 64 -176 73 -185 8 -10 34 -63 56 -117 22 -54 47 -106 55 -115 8 -9 31 -59 52 -111 20 -52 45 -114 55 -138 11 -23 27 -74 35 -112 19 -83 32 -94 89 -74 65 22 78 46 72 134 -5 80 -9 100 -62 367 -20 100 -32 186 -28 205 9 60 -56 356 -122 553 -109 322 -208 594 -230 629 -7 12 -59 145 -115 296 -56 151 -108 284 -115 295 -7 11 -61 144 -120 295 -59 151 -115 291 -125 310 -10 19 -43 98 -75 174 -31 77 -61 146 -66 155 -16 30 -59 133 -59 144 0 6 -22 48 -49 92 -26 44 -82 136 -122 204 -41 68 -82 138 -93 155 -10 17 -44 58 -75 91 -31 33 -79 86 -106 119 -56 66 -232 202 -315 243 -30 15 -91 48 -135 74 -45 25 -99 52 -120 59 -22 7 -44 16 -50 20 -15 12 -195 77 -235 85 -19 4 -52 23 -74 42 -21 20 -62 46 -91 58 -95 43 -209 119 -288 195 -18 17 -127 124 -243 238 -221 216 -289 278 -390 354 -98 75 -281 196 -306 203 -13 4 -58 20 -100 36 -126 47 -230 59 -523 58 -208 0 -282 -4 -370 -20z m951 -2425 c27 -14 87 -41 134 -60 47 -20 103 -46 126 -59 22 -13 74 -40 115 -61 41 -20 89 -48 108 -62 45 -33 123 -62 169 -62 50 0 87 25 209 138 57 53 110 100 118 104 7 5 66 19 131 33 191 41 310 34 476 -27 85 -31 165 -110 195 -193 37 -104 43 -137 43 -253 0 -256 -89 -499 -282 -767 -141 -195 -308 -340 -503 -435 -140 -69 -189 -80 -333 -80 -149 0 -228 19 -412 96 -63 26 -104 50 -251 148 -183 121 -410 347 -568 565 -18 25 -69 119 -112 207 -93 189 -113 265 -106 394 7 112 19 148 75 222 38 50 62 70 127 105 109 58 172 71 346 72 137 1 148 0 195 -25z"/>
 <path d="M2907 5974 c-12 -12 -8 -41 7 -53 7 -6 36 -13 63 -15 27 -2 60 -10 74 -19 41 -26 209 -62 429 -91 63 -8 198 -27 300 -40 308 -42 469 -56 1010 -86 395 -22 708 -47 758 -60 18 -5 46 -4 66 1 41 11 86 61 86 93 0 33 -41 73 -89 86 -29 7 -338 14 -949 20 -499 5 -945 14 -992 19 -211 25 -448 63 -492 80 -14 5 -55 13 -90 17 -35 4 -74 15 -88 25 -28 21 -81 34 -93 23z"/>
 <path d="M8853 5773 c-29 -6 -63 -49 -63 -80 0 -42 27 -80 67 -95 46 -16 229 -17 918 -5 413 8 482 11 498 24 21 20 22 66 2 83 -9 7 -69 16 -147 21 -73 5 -162 13 -198 19 -36 5 -258 14 -495 20 -236 6 -459 12 -495 14 -36 3 -75 2 -87 -1z"/>
 <path d="M5950 5686 c-64 -17 -218 -86 -420 -188 -96 -48 -180 -88 -187 -88 -9 0 -13 15 -13 44 0 37 -5 48 -31 70 -46 39 -83 33 -141 -22 -39 -36 -39 -95 -1 -134 14 -15 24 -31 20 -34 -9 -10 -202 -84 -327 -126 -187 -62 -293 -80 -345 -56 -40 18 -77 -3 -73 -44 4 -45 45 -72 105 -71 153 3 774 195 1053 326 123 57 351 145 407 157 73 16 103 42 103 89 0 68 -64 101 -150 77z"/>
 <path d="M8532 5587 c-38 -40 -30 -87 27 -154 73 -87 81 -93 291 -214 107 -61 200 -115 205 -119 17 -14 293 -149 344 -170 100 -39 324 -154 374 -191 74 -56 127 -50 127 12 0 16 -10 39 -22 52 -19 21 -251 147 -548 299 -58 29 -79 42 -375 232 -157 100 -193 129 -238 183 -77 95 -139 119 -185 70z"/>
 <path d="M9001 5523 c-29 -25 -33 -35 -33 -78 0 -43 5 -53 31 -77 36 -32 59 -35 104 -11 44 23 56 41 57 90 0 56 -31 92 -86 100 -35 4 -46 1 -73 -24z"/>
 </g>

</svg>